<?xml version="1.0" encoding="UTF-8"?>
<svg width="24" height="24" viewBox="0 0 24 24" fill="none" xmlns="http://www.w3.org/2000/svg">
    <circle cx="12" cy="12" r="10" fill="white"/>
    <path d="M22 12C22 6.477 17.523 2 12 2C6.477 2 2 6.477 2 12C2 16.991 5.657 21.128 10.438 21.878V14.891H7.898V12H10.438V9.797C10.438 7.291 11.93 5.907 14.215 5.907C15.308 5.907 16.453 6.102 16.453 6.102V8.562H15.193C13.95 8.562 13.563 9.333 13.563 10.125V12H16.336L15.893 14.89H13.563V21.878C18.343 21.128 22 16.991 22 12Z" fill="#1877F2"/>
</svg>
